<?xml version="1.0" encoding="utf-8"?>
<!-- Generator: Adobe Illustrator 26.2.1, SVG Export Plug-In . SVG Version: 6.00 Build 0)  -->
<svg version="1.1" id="Ebene_1" xmlns="http://www.w3.org/2000/svg" xmlns:xlink="http://www.w3.org/1999/xlink" x="0px" y="0px"
	 viewBox="0 0 1146.6 227.8" style="enable-background:new 0 0 1146.6 227.8;" xml:space="preserve">
<style type="text/css">
	.st0{fill:none;}
	.st1{fill:#78F9E6;}
	.st2{font-family:'Spartan-Bold';}
	.st3{font-size:30px;}
	.st4{fill:#FFFFFF;}
	.st5{font-family:'Spartan-Regular';}
	.st6{font-size:12px;}
	.st7{font-size:15px;}
	.st8{fill:none;stroke:#78F9E6;stroke-miterlimit:10;}
	.st9{fill:none;stroke:#78F9E6;stroke-width:2;stroke-miterlimit:10;}
	.st10{fill:none;stroke:#FF0000;stroke-width:3;stroke-miterlimit:10;}
</style>
<rect x="0.1" y="-0.1" width="1146.5" height="228.6"/>
<rect x="191" y="49.6" class="st0" width="301.9" height="31.7"/>
<text transform="matrix(1 0 0 1 190.9836 75.3613)" class="st1 st2 st3">Don‘tBuyThisNFT</text>
<rect x="50.6" y="50.5" class="st1" width="91.6" height="86.8"/>
<rect x="193" y="94.4" class="st0" width="383.1" height="16.5"/>
<text transform="matrix(1 0 0 1 193.0262 104.7877)" class="st4 st5 st6">Der NFT für die Umwelt, Gesellschaft und fürs Portmonnaie</text>
<rect x="1033.8" y="173.2" class="st0" width="66.3" height="16.5"/>
<text transform="matrix(1 0 0 1 1074.2234 186.095)" class="st4 st5 st7">5 $</text>
<rect x="869" y="132.7" class="st0" width="59.3" height="16.5"/>
<text transform="matrix(1 0 0 1 872.483 145.6232)" class="st4 st5 st7">Anzahl </text>
<rect x="873.8" y="153" class="st8" width="99.3" height="34.6"/>
<line class="st9" x1="887.2" y1="171.9" x2="901.6" y2="171.9"/>
<g>
	<line class="st9" x1="943.8" y1="171.5" x2="958.2" y2="171.5"/>
	<line class="st9" x1="951.1" y1="178.6" x2="951.1" y2="164.2"/>
</g>
<rect x="915.5" y="165.4" class="st0" width="8.8" height="16.5"/>
<text transform="matrix(1 0 0 1 920.0353 175.7001)" class="st4 st5 st6">1</text>
<g>
	<path class="st1" d="M1078.2,58.7c-0.9-0.3-1.6-0.8-2-1.8c-0.2-0.5-0.2-0.9-0.2-1.4c-0.1-1.5-0.2-3.1-0.4-4.6
		c-0.1-1.8-0.3-3.6-0.4-5.4c-0.1-1.5-0.2-3.1-0.4-4.6c-0.1-1.5-0.3-3.1-0.4-4.6c-0.1-1.3-0.2-2.5-0.3-3.8c0-0.5,0-0.5-0.5-0.5
		c-0.2,0-0.4,0-0.6,0c-0.4,0-0.6-0.3-0.6-0.6c0-0.3,0.2-0.5,0.5-0.6c0.1,0,0.1,0,0.2,0c0.3,0,0.3-0.1,0.3-0.4c0-0.2,0-0.3,0-0.5
		c-0.1-1.1,0.8-1.8,1.8-1.8c1.8,0,3.6,0,5.4,0c0.3,0,0.4-0.1,0.5-0.4c0.2-0.7,0.4-1.4,0.6-2.1c0.2-0.8,0.8-1.3,1.7-1.3
		c1.9,0,3.8,0,5.7,0c0.9,0,1.5,0.5,1.7,1.3c0.2,0.7,0.4,1.4,0.6,2.1c0.1,0.3,0.2,0.4,0.5,0.3c1.8,0,3.6,0,5.5,0c1,0,1.9,0.8,1.8,1.8
		c0,0.1,0,0.2,0,0.2c0,0.5,0,0.5,0.5,0.6c0.3,0.1,0.5,0.3,0.5,0.6c0,0.3-0.2,0.6-0.6,0.6c-0.2,0-0.5,0-0.7,0c-0.3,0-0.4,0.1-0.4,0.3
		c-0.1,1-0.1,1.9-0.2,2.9c-0.1,1.5-0.3,3.1-0.4,4.6c-0.1,1.2-0.2,2.4-0.3,3.6c-0.1,1.6-0.3,3.2-0.4,4.8c-0.1,1.2-0.2,2.4-0.3,3.6
		c-0.1,1.5-0.2,3-0.4,4.5c-0.1,1.2-0.8,2-1.9,2.4c-0.1,0-0.2,0.1-0.2,0.1C1089.2,58.7,1083.7,58.7,1078.2,58.7z M1086.5,32
		c-3.5,0-7,0-10.5,0c-0.1,0-0.2,0-0.3,0c-0.2,0-0.3,0.1-0.3,0.3c0,0.4,0.1,0.8,0.1,1.2c0.1,1.6,0.3,3.1,0.4,4.7
		c0.1,1.2,0.2,2.4,0.3,3.7c0.1,1.6,0.3,3.1,0.4,4.7c0.1,1.5,0.2,3,0.4,4.5c0.1,1.6,0.3,3.2,0.4,4.8c0.1,1,0.7,1.6,1.7,1.6
		c5,0,10,0,15,0c1,0,1.7-0.6,1.7-1.7c0-0.7,0.1-1.4,0.2-2.1c0.1-1.5,0.3-3.1,0.4-4.6c0.1-1.2,0.2-2.5,0.3-3.7
		c0.1-1.6,0.3-3.1,0.4-4.7c0.1-1.2,0.2-2.5,0.3-3.7c0.1-1.5,0.3-3,0.4-4.5c0-0.5,0-0.5-0.5-0.5C1093.6,32,1090,32,1086.5,32z
		 M1086.5,30.8c3.6,0,7.2,0,10.8,0c1,0,1-0.1,0.9-1c0-0.2-0.2-0.4-0.4-0.4c-0.1,0-0.3,0-0.4,0c-7.2,0-14.4,0-21.6,0c-0.9,0-1,0-1,1
		c0,0.5,0,0.5,0.5,0.5C1079,30.8,1082.8,30.8,1086.5,30.8z M1086.5,28.1c1.2,0,2.4,0,3.7,0c0.3,0,0.4-0.1,0.3-0.3
		c-0.2-0.6-0.3-1.2-0.5-1.7c-0.1-0.3-0.3-0.5-0.6-0.5c-1.9,0-3.7,0-5.6,0c-0.4,0-0.5,0.1-0.7,0.5c-0.2,0.6-0.3,1.1-0.5,1.7
		c-0.1,0.3,0,0.4,0.3,0.4C1084,28.1,1085.3,28.1,1086.5,28.1z"/>
	<path class="st1" d="M1087.1,45c0,3.4,0,6.7,0,10.1c0,0.2,0,0.4,0,0.5c-0.1,0.3-0.3,0.4-0.6,0.4s-0.5-0.2-0.6-0.4
		c0-0.1,0-0.3,0-0.4c0-6.8,0-13.5,0-20.3c0-0.1,0-0.2,0-0.3c0-0.4,0.3-0.6,0.6-0.6c0.3,0,0.6,0.2,0.6,0.6c0,0.1,0,0.3,0,0.4
		C1087.1,38.3,1087.1,41.7,1087.1,45z"/>
	<path class="st1" d="M1092.9,35.2c-0.1,2-0.2,4.1-0.3,6.1c-0.1,0.9-0.1,1.9-0.1,2.8c-0.1,2.1-0.2,4.2-0.3,6.3
		c-0.1,1.5-0.1,3-0.2,4.4c0,0.2,0,0.4,0,0.5c-0.1,0.4-0.3,0.6-0.7,0.6c-0.3,0-0.5-0.3-0.5-0.7c0-0.5,0-1,0.1-1.4
		c0.1-1.1,0.1-2.2,0.2-3.3c0.1-2,0.2-4.1,0.3-6.1c0.1-1,0.1-2,0.1-3c0.1-2,0.2-4.1,0.3-6.1c0-0.3,0-0.5,0-0.8c0-0.4,0.3-0.6,0.7-0.6
		c0.3,0,0.5,0.3,0.5,0.7C1092.9,34.9,1092.9,35,1092.9,35.2C1092.9,35.2,1092.9,35.2,1092.9,35.2z"/>
	<path class="st1" d="M1082.3,55.4c0,0.3-0.2,0.5-0.5,0.6c-0.4,0-0.6-0.2-0.7-0.6c0-0.5-0.1-0.9-0.1-1.4c-0.1-1.6-0.1-3.1-0.2-4.7
		c-0.1-2.6-0.3-5.3-0.4-7.9c-0.1-1.7-0.2-3.4-0.3-5.1c0-0.5,0-1-0.1-1.5c0-0.4,0.2-0.7,0.5-0.7c0.4,0,0.6,0.2,0.7,0.7
		c0,0.8,0.1,1.7,0.1,2.5c0.1,2.6,0.3,5.1,0.4,7.7c0.1,1.6,0.1,3.2,0.2,4.8C1082,51.5,1082.2,53.4,1082.3,55.4z"/>
</g>
<g>
	<path d="M92.5,138.4v-11c-6.3-0.1-12.9-2.1-16.7-4.8l2.6-7.3c3.9,2.6,9.6,4.7,15.7,4.7c7.8,0,13-4.5,13-10.7c0-6-4.3-9.7-12.3-13
		c-11.1-4.4-18-9.4-18-18.9c0-9.1,6.4-16,16.5-17.6v-11h6.8v10.6c6.6,0.2,11,2,14.2,3.8l-2.7,7.2c-2.3-1.3-6.8-3.7-13.8-3.7
		c-8.4,0-11.6,5-11.6,9.4c0,5.7,4,8.5,13.5,12.5c11.3,4.6,16.9,10.3,16.9,20c0,8.6-6,16.7-17.3,18.6v11.4H92.5z"/>
</g>
<g>
	<line class="st10" x1="64.1" y1="62.7" x2="128.7" y2="124"/>
	<line class="st10" x1="64.1" y1="124" x2="128.7" y2="62.7"/>
</g>
</svg>
